<svg xmlns="http://www.w3.org/2000/svg" viewBox="0 0 150.21 36.39"><defs><style>.cls-4{fill:#fff;}</style></defs><g id="Layer_2" data-name="Layer 2"><g id="Layer_1-2" data-name="Layer 1"><path class="cls-4" d="M89.81,12.3a8.76,8.76,0,0,0-7.45-3.94,10,10,0,1,0,8.93,14.28H81.12V14.47H99.74V1.79h16.61V10h-8.7s0,4.51,0,4.51h8.7v8.17h-8.7v4.22h8.7v8c.28,0-16.62,0-16.62,0V22.71c-2,9-9.22,13.68-17.37,13.68S67.57,31.61,65.62,23.16V34.83H57.45V15.52s-4.73,4.16-4.73,19.31H44.34c0-15.15-4.73-19.31-4.73-19.31V34.83H31.45V1.29c9.41,0,15.62,10.57,17.08,16.81h0C50,11.86,56.2,1.29,65.61,1.29V12.43C67.2,5,74.66,0,82.36,0,90.27,0,97.23,6,98.7,12.3Z"/><path class="cls-4" d="M134.26,34.83A31.37,31.37,0,0,0,127,19.22V34.83h-8.66v-33c1.92,0,8.82,3.73,15.88,13.89V1.79h8.46v33Z"/><path class="cls-4" d="M10.72,26.55c-.23.94-1.68,6-2.26,8.35H0A108.94,108.94,0,0,1,5.62,18.82c2.26-4.74,5.11-10,9.79-13.5a18.55,18.55,0,0,1,14.11-4.1V34.86H21.31V26.55Zm10.6-7.69V11a31.79,31.79,0,0,0-7.15,7.82Z"/><path class="cls-4" d="M145.22,3.13a2.5,2.5,0,1,1,2.5,2.5A2.5,2.5,0,0,1,145.22,3.13Zm4.52,0a2,2,0,1,0-2,2A2,2,0,0,0,149.74,3.13ZM149,4.49h-.62l-.59-1.14h-.53V4.49h-.53V1.8H148a1.4,1.4,0,0,1,.73.13.79.79,0,0,1,.32.7c0,.49-.26.69-.74.72ZM148,3c.29,0,.5-.06.5-.41s-.38-.35-.64-.35h-.65V3Z"/></g></g></svg>