<svg xmlns="http://www.w3.org/2000/svg" viewBox="0 0 64.83 65.83"><defs><style>.cls-1{fill:none;stroke:#fff;stroke-linecap:round;stroke-linejoin:round;stroke-width:4px;}</style></defs><g id="Layer_2" data-name="Layer 2"><g id="Layer_1-2" data-name="Layer 1"><line class="cls-1" x1="5.8" y1="5.8" x2="25.93" y2="25.93"/><path class="cls-1" d="M24.59,2H13.38A11.41,11.41,0,0,0,2,13.38v11"/><line class="cls-1" x1="58.91" y1="5.91" x2="38.79" y2="26.04"/><path class="cls-1" d="M62.83,24.59V13.38A11.41,11.41,0,0,0,51.45,2h-11"/><line class="cls-1" x1="59.02" y1="60.03" x2="38.9" y2="39.9"/><path class="cls-1" d="M40.24,63.83H51.45A11.41,11.41,0,0,0,62.83,52.46v-11"/><line class="cls-1" x1="5.91" y1="59.92" x2="26.04" y2="39.79"/><path class="cls-1" d="M2,41.25V52.46A11.41,11.41,0,0,0,13.38,63.83h11"/></g></g></svg>