<svg xmlns="http://www.w3.org/2000/svg" xmlns:xlink="http://www.w3.org/1999/xlink" viewBox="0 0 264.41 268.67"><defs><style>.cls-1{fill:none;}.cls-2{clip-path:url(#clip-path);}.cls-3{fill:#fff;}.cls-4{fill:#2a2a3f;}.cls-5{fill:#00bfea;}</style><clipPath id="clip-path" transform="translate(-0.03 -0.01)"><rect class="cls-1" width="264.44" height="264.44"/></clipPath></defs><g id="Layer_2" data-name="Layer 2"><g id="Layer_1-2" data-name="Layer 1"><g class="cls-2"><path class="cls-3" d="M132.22,264.44v-2.08c3,0,6-.1,8.92-.3l.14,2.08C138.28,264.34,135.23,264.44,132.22,264.44Zm-10.6-.42c-3-.24-6.05-.58-9-1l.3-2.06c2.92.43,5.91.77,8.87,1Zm33.66-1.58-.36-2.05c2.91-.52,5.85-1.14,8.73-1.85l.5,2C161.23,261.29,158.24,261.92,155.28,262.44Zm-56.49-2.26c-2.9-.76-5.83-1.63-8.69-2.59l.67-2c2.81.94,5.69,1.8,8.55,2.54Zm78.85-3.74-.72-2c2.79-1,5.58-2.15,8.28-3.36l.85,1.91C183.3,254.25,180.47,255.4,177.64,256.44ZM77,252.39c-2.73-1.26-5.45-2.63-8.09-4.07l1-1.83c2.6,1.42,5.28,2.77,8,4ZM198.6,246.6l-1-1.8c2.56-1.5,5.11-3.1,7.56-4.76l1.17,1.73C203.8,243.45,201.21,245.08,198.6,246.6ZM56.91,240.91c-2.47-1.71-4.92-3.54-7.27-5.42L51,233.87c2.31,1.85,4.71,3.64,7.15,5.33Zm160.61-7.66-1.34-1.59c2.26-1.91,4.49-3.93,6.62-6l1.45,1.49C222.08,229.26,219.82,231.31,217.52,233.25Zm-178.4-7.14c-2.14-2.12-4.23-4.34-6.22-6.6l1.57-1.38c2,2.23,4,4.41,6.12,6.5Zm194.72-9.28-1.6-1.34c1.89-2.27,3.74-4.64,5.47-7l1.69,1.22C237.63,212.11,235.76,214.51,233.84,216.83ZM24.16,208.44c-1.74-2.46-3.41-5-5-7.59L21,199.77c1.54,2.53,3.19,5,4.9,7.47Zm222.89-10.62-1.81-1c1.47-2.57,2.87-5.23,4.16-7.89l1.88.91C250,192.51,248.54,195.21,247.05,197.82ZM12.51,188.43c-1.28-2.73-2.49-5.53-3.58-8.34l1.94-.76c1.08,2.77,2.26,5.53,3.52,8.21Zm244.22-11.62-2-.7c1-2.79,1.92-5.65,2.72-8.5l2,.56C258.68,171.07,257.75,174,256.73,176.81ZM4.54,166.68c-.79-2.9-1.48-5.87-2.06-8.83l2.05-.4c.57,2.91,1.25,5.83,2,8.69Zm258-12.26-2.06-.35c.5-2.92.9-5.89,1.19-8.84l2.07.2C263.49,148.43,263.09,151.46,262.59,154.42ZM.51,143.89c-.26-3-.43-6-.48-9l2.08,0c.05,3,.21,6,.47,8.91Zm261.85-12.53c0-3-.14-6-.36-8.92l2.08-.15c.22,3,.34,6,.36,9.06ZM2.56,120.93l-2.07-.18c.26-3,.62-6,1.09-9l2.05.32C3.18,115,2.82,118,2.56,120.93Zm257.68-12.25c-.54-2.91-1.18-5.85-1.91-8.72l2-.51c.74,2.91,1.39,5.89,1.94,8.85ZM6.5,98.49l-2-.54c.78-2.91,1.67-5.83,2.65-8.67l2,.67C8.14,92.75,7.26,95.62,6.5,98.49ZM254.18,86.72c-1-2.78-2.18-5.56-3.41-8.26l1.9-.86c1.24,2.74,2.41,5.56,3.46,8.39ZM14.3,77.09l-1.88-.89c1.27-2.72,2.66-5.43,4.12-8.06l1.82,1C16.92,71.74,15.56,74.41,14.3,77.09Zm230.06-11c-1.51-2.55-3.12-5.08-4.8-7.53l1.72-1.18c1.7,2.49,3.34,5.06,4.87,7.65ZM25.73,57.39,24,56.19c1.74-2.46,3.58-4.89,5.47-7.22l1.61,1.31C29.25,52.57,27.44,55,25.73,57.39ZM231.1,47.61c-1.92-2.25-3.95-4.46-6-6.58l1.48-1.46c2.11,2.15,4.18,4.4,6.13,6.68ZM40.42,40,39,38.5c2.13-2.12,4.37-4.2,6.64-6.17L47,33.9C44.72,35.84,42.52,37.89,40.42,40Zm174.41-8.32c-2.29-1.88-4.67-3.71-7.08-5.43l1.21-1.7c2.45,1.75,4.87,3.61,7.19,5.52ZM57.91,25.37l-1.19-1.71c2.47-1.72,5-3.38,7.62-4.93l1.07,1.79C62.86,22.05,60.34,23.68,57.91,25.37ZM196,18.78c-2.57-1.45-5.23-2.84-7.91-4.11l.9-1.88c2.72,1.3,5.42,2.7,8,4.18ZM77.68,14l-.88-1.89c2.74-1.27,5.56-2.45,8.37-3.52l.74,1.94C83.14,11.62,80.37,12.78,77.68,14ZM175.3,9.38c-2.8-1-5.67-1.88-8.52-2.66l.55-2c2.9.8,5.81,1.71,8.66,2.7ZM99.13,6.32l-.53-2c2.92-.76,5.89-1.43,8.85-2l.38,2C104.93,4.91,102,5.57,99.13,6.32Zm54.09-2.55c-2.93-.48-5.91-.86-8.85-1.13l.19-2.07c3,.27,6,.66,9,1.14ZM121.59,2.51,121.42.44c3-.25,6-.39,9-.43l0,2.08C127.54,2.13,124.54,2.27,121.59,2.51Z" transform="translate(-0.03 -0.01)"/><path class="cls-4" d="M132.22,193.55A61.33,61.33,0,1,0,70.9,132.22a61.33,61.33,0,0,0,61.32,61.33" transform="translate(-0.03 -0.01)"/></g><rect class="cls-5" x="63.09" y="218.67" width="138.2" height="50" rx="25"/><path class="cls-3" d="M103.3,253.12c-.06,0-.14-.06-.25-.17h0l-.2-.14-.08-.13a.73.73,0,0,0-.09-.09.46.46,0,0,1-.07-.13.28.28,0,0,0-.1-.15L95.63,236a1.42,1.42,0,0,1,0-1.16,1.35,1.35,0,0,1,.86-.82,1.37,1.37,0,0,1,1.14,0,1.46,1.46,0,0,1,.84.83l5.46,13,5.46-13a1.53,1.53,0,0,1,.86-.83,1.42,1.42,0,0,1,1.16,0,1.37,1.37,0,0,1,.83.82,1.55,1.55,0,0,1,0,1.16l-6.92,16.36-.11.22a.09.09,0,0,1,0,.06l-.36.36a.7.7,0,0,1-.18.11,2.93,2.93,0,0,1-.38.14h-.06a1.12,1.12,0,0,1-.29,0,.91.91,0,0,1-.27,0h0a.48.48,0,0,0-.23,0l0,0Z" transform="translate(-0.03 -0.01)"/><path class="cls-3" d="M117.83,235.17a1.54,1.54,0,0,1,1.54-1.54,1.54,1.54,0,0,1,1.11.45,1.49,1.49,0,0,1,.46,1.09v16.52a1.49,1.49,0,0,1-.46,1.09,1.54,1.54,0,0,1-1.11.45,1.54,1.54,0,0,1-1.54-1.54Z" transform="translate(-0.03 -0.01)"/><path class="cls-3" d="M127.71,253.23a1.54,1.54,0,0,1-1.54-1.54V235.17a1.54,1.54,0,0,1,1.54-1.54h9.16a1.51,1.51,0,0,1,1.08.45,1.45,1.45,0,0,1,.46,1.09,1.57,1.57,0,0,1-1.54,1.57h-7.59v5.12h6.53a1.48,1.48,0,0,1,1.07.46,1.49,1.49,0,0,1,.47,1.09,1.52,1.52,0,0,1-.45,1.1,1.47,1.47,0,0,1-1.09.46h-6.53v5.15h7.59a1.57,1.57,0,0,1,1.54,1.56,1.48,1.48,0,0,1-.46,1.09,1.52,1.52,0,0,1-1.08.46H127.8l-.06,0Z" transform="translate(-0.03 -0.01)"/><path class="cls-3" d="M151,253l-.23.17h0a.79.79,0,0,0-.26.08h-.08a.87.87,0,0,1-.27,0,.79.79,0,0,1-.26,0h-.08l-.2-.07-.1,0a1.06,1.06,0,0,1-.21-.14h0a2.13,2.13,0,0,1-.22-.21,1.61,1.61,0,0,0-.17-.18v0a.46.46,0,0,1-.07-.13.54.54,0,0,0-.07-.12L141.85,236a1.53,1.53,0,0,1,0-1.17,1.34,1.34,0,0,1,.82-.81,1.42,1.42,0,0,1,1.16,0,1.39,1.39,0,0,1,.83.83l5.49,13,3.61-8.59a1.43,1.43,0,0,1,1.44-1,1.49,1.49,0,0,1,1.47,1l3.62,8.59,5.46-13a1.47,1.47,0,0,1,.83-.83,1.51,1.51,0,0,1,1.18,0,1.46,1.46,0,0,1,.83.84,1.42,1.42,0,0,1,0,1.16l-6.86,16.33a.94.94,0,0,1-.31.45.17.17,0,0,1,0,.08.72.72,0,0,0-.2.14h0l-.25.17h-.08l-.2.07h-.06a.79.79,0,0,1-.26,0,.91.91,0,0,1-.27,0H160l-.2-.07-.1,0a.68.68,0,0,1-.21-.15h0a1.05,1.05,0,0,1-.37-.39.43.43,0,0,1-.17-.28l-3.66-8.68-3.67,8.68-.11.25-.2.2a.27.27,0,0,1,0,.08.74.74,0,0,0-.17.14Z" transform="translate(-0.03 -0.01)"/></g></g></svg>