<svg xmlns="http://www.w3.org/2000/svg" xmlns:xlink="http://www.w3.org/1999/xlink" viewBox="0 0 243.09 243.09"><defs><style>.cls-1,.cls-3{fill:none;}.cls-2{clip-path:url(#clip-path);}.cls-3{stroke:#fff;stroke-width:2px;}.cls-4{fill:#2a2a3f;}.cls-5{fill:#fff;}</style><clipPath id="clip-path" transform="translate(0.04 0.04)"><rect class="cls-1" width="243" height="243"/></clipPath></defs><g id="Layer_2" data-name="Layer 2"><g id="Layer_1-2" data-name="Layer 1"><g class="cls-2"><circle class="cls-3" cx="121.54" cy="121.54" r="120.54"/><path class="cls-4" d="M121.5,177.85A56.35,56.35,0,1,0,65.15,121.5a56.35,56.35,0,0,0,56.35,56.35" transform="translate(0.04 0.04)"/></g><path class="cls-5" d="M98.24,102c0-1.83-2.12-3.15-6.36-3.94h-.07a20.33,20.33,0,0,1-4.88-1.52,7,7,0,0,1-3-2.51,5.89,5.89,0,0,1-1-3.16,6.17,6.17,0,0,1,2.77-5.17,10.73,10.73,0,0,1,9.63-1.48,14,14,0,0,1,2.47,1c.54.32,1.26.76,2.15,1.34a1.91,1.91,0,0,1,.78,1.19,1.78,1.78,0,0,1-.25,1.39,1.83,1.83,0,0,1-1.18.8,1.78,1.78,0,0,1-1.41-.27,20.14,20.14,0,0,0-3-1.74,7,7,0,0,0-2.8-.58,6.47,6.47,0,0,0-3.91,1.12,3.08,3.08,0,0,0-1.51,2.39,1.87,1.87,0,0,0,.28,1c.68,1.1,2.5,1.94,5.46,2.49h.07a22.87,22.87,0,0,1,5,1.52c3,1.47,4.48,3.49,4.48,6.07a6.56,6.56,0,0,1-3,5.51,11.38,11.38,0,0,1-6.83,2.15A15,15,0,0,1,82.92,106a1.79,1.79,0,0,1-.67-1.26,1.77,1.77,0,0,1,.38-1.37,1.79,1.79,0,0,1,1.26-.67,1.75,1.75,0,0,1,1.38.41,10.73,10.73,0,0,0,6.9,2.78,7.2,7.2,0,0,0,4.39-1.24A3.44,3.44,0,0,0,98.24,102Z" transform="translate(0.04 0.04)"/><path class="cls-5" d="M118.43,100.54h-.07a2,2,0,0,1-1.66-.83l-5.17-7.23V107.7a1.89,1.89,0,0,1-.59,1.4,2,2,0,0,1-1.43.58,2,2,0,0,1-2-2V86.38A2,2,0,0,1,108.1,85a1.92,1.92,0,0,1,1.41-.58h.11a1.78,1.78,0,0,1,1.59.83l7.19,10,7.19-10a1.93,1.93,0,0,1,1.62-.83h0a2.15,2.15,0,0,1,1.43.62,1.85,1.85,0,0,1,.59,1.37V107.7a1.93,1.93,0,0,1-.59,1.39,2,2,0,0,1-1.43.59,1.92,1.92,0,0,1-1.41-.58,1.88,1.88,0,0,1-.58-1.4V92.48l-5.2,7.23A1.94,1.94,0,0,1,118.43,100.54Z" transform="translate(0.04 0.04)"/><path class="cls-5" d="M148.93,100.54h-.07a2,2,0,0,1-1.67-.83L142,92.48V107.7a1.86,1.86,0,0,1-.6,1.4,2,2,0,0,1-1.43.58,2,2,0,0,1-2-2V86.38a2,2,0,0,1,.57-1.41,1.92,1.92,0,0,1,1.41-.58h.11a1.78,1.78,0,0,1,1.59.83l7.19,10,7.19-10a1.94,1.94,0,0,1,1.63-.83h0a2.13,2.13,0,0,1,1.43.62,1.83,1.83,0,0,1,.6,1.37V107.7a1.9,1.9,0,0,1-.6,1.39,2,2,0,0,1-1.43.59,2,2,0,0,1-2-2V92.48l-5.21,7.23A1.93,1.93,0,0,1,148.93,100.54Z" transform="translate(0.04 0.04)"/><path class="cls-5" d="M28.29,133.75a8.79,8.79,0,0,0-2.64,6.35,8.31,8.31,0,0,0,2.7,6.24,8.72,8.72,0,0,0,6.23,2.58,9.34,9.34,0,0,0,6-2,2,2,0,0,1,1.48-.36,2.11,2.11,0,0,1,1.41.76,2.07,2.07,0,0,1,.4,1.54,2,2,0,0,1-.76,1.35A13.19,13.19,0,0,1,34.79,153a12.88,12.88,0,0,1-9.32-3.81,12.66,12.66,0,0,1,0-18.36A13,13,0,0,1,34.79,127a13.18,13.18,0,0,1,8.35,2.81,2.11,2.11,0,0,1,.76,1.38,2.09,2.09,0,0,1-1.81,2.31,1.86,1.86,0,0,1-1.48-.4,9.14,9.14,0,0,0-6-2A9,9,0,0,0,28.29,133.75Z" transform="translate(0.04 0.04)"/><path class="cls-5" d="M50.67,150.4a9.49,9.49,0,0,1,0-12.77A8,8,0,0,1,56.8,135a8.12,8.12,0,0,1,4.8,1.59,2.25,2.25,0,0,1,.69-1.13,1.77,1.77,0,0,1,1.25-.46,1.8,1.8,0,0,1,1.3.58,1.94,1.94,0,0,1,.56,1.37v14.2a1.86,1.86,0,0,1-.56,1.36,1.81,1.81,0,0,1-1.3.56,1.9,1.9,0,0,1-1.25-.43,2.18,2.18,0,0,1-.69-1.12A8.2,8.2,0,0,1,56.8,153,8.06,8.06,0,0,1,50.67,150.4ZM52.06,144a5.32,5.32,0,0,0,1.32,3.67,4.33,4.33,0,0,0,3.4,1.48,4.44,4.44,0,0,0,3.43-1.48,5.59,5.59,0,0,0,0-7.33,4.41,4.41,0,0,0-3.41-1.52,4.33,4.33,0,0,0-3.38,1.5A5.35,5.35,0,0,0,52.06,144Z" transform="translate(0.04 0.04)"/><path class="cls-5" d="M83.64,137a1.8,1.8,0,0,1,.81,1.21,2,2,0,0,1-.23,1.46,1.85,1.85,0,0,1-1.21.82,1.83,1.83,0,0,1-1.46-.31,6.62,6.62,0,0,0-3.35-1.34,3.42,3.42,0,0,0-2.15.65c-.38.27-.57.5-.57.71a.89.89,0,0,0,.09.45,1.08,1.08,0,0,0,.38.33,6.89,6.89,0,0,0,2.63.86l0,0h0a15.4,15.4,0,0,1,3.5,1.08,5.12,5.12,0,0,1,2.35,2,4.86,4.86,0,0,1,.76,2.49A5,5,0,0,1,83,151.59a8,8,0,0,1-4.7,1.45,10.37,10.37,0,0,1-6.43-2.49,1.88,1.88,0,0,1-.67-1.29,2,2,0,0,1,1.72-2.11,1.84,1.84,0,0,1,1.41.43,5.94,5.94,0,0,0,4,1.59,4.55,4.55,0,0,0,2.46-.68c.43-.37.65-.67.65-.92a.87.87,0,0,0-.11-.53,1.17,1.17,0,0,0-.47-.43,7.69,7.69,0,0,0-2.89-1h0a13.46,13.46,0,0,1-3.35-1,5.66,5.66,0,0,1-2.29-2,4.27,4.27,0,0,1-.61-2.27,4.85,4.85,0,0,1,2.13-4A7.72,7.72,0,0,1,78.24,135,9.75,9.75,0,0,1,83.64,137Z" transform="translate(0.04 0.04)"/><path class="cls-5" d="M106.51,143.54a1.67,1.67,0,0,1-.52,1.28,2,2,0,0,1-1.39.49H93.11a4.25,4.25,0,0,0,1.23,2.38,5.07,5.07,0,0,0,3.37,1.61,5.26,5.26,0,0,0,3.85-.89,1.9,1.9,0,0,1,1.45-.57,1.48,1.48,0,0,1,1.26.47,1.6,1.6,0,0,1,0,2.34A9,9,0,0,1,97.89,153a8.52,8.52,0,0,1-6.32-2.65,9.15,9.15,0,0,1,0-12.74A8.23,8.23,0,0,1,97.73,135a8.47,8.47,0,0,1,6.09,2.37,8.7,8.7,0,0,1,2.69,6Zm-8.71-5.13a5.09,5.09,0,0,0-3.36,1.3,4.66,4.66,0,0,0-1.51,2.53h10.22a4.9,4.9,0,0,0-1.75-2.46A6.22,6.22,0,0,0,97.8,138.41Z" transform="translate(0.04 0.04)"/><path class="cls-5" d="M138.3,145.34q0-2.75-6.35-3.93h-.08a20.7,20.7,0,0,1-4.87-1.52,6.9,6.9,0,0,1-3-2.51,5.92,5.92,0,0,1-1-3.17,6.14,6.14,0,0,1,2.77-5.16,10.71,10.71,0,0,1,9.62-1.48,13.87,13.87,0,0,1,2.48,1c.54.31,1.26.76,2.15,1.34a1.89,1.89,0,0,1,.78,1.19,1.79,1.79,0,0,1-.26,1.39A1.87,1.87,0,0,1,138,133a18.75,18.75,0,0,0-3-1.73,6.82,6.82,0,0,0-2.8-.58,6.37,6.37,0,0,0-3.9,1.12,3.08,3.08,0,0,0-1.52,2.38,1.88,1.88,0,0,0,.29,1c.68,1.11,2.49,1.94,5.46,2.5h.07a23.09,23.09,0,0,1,5,1.51c3,1.47,4.48,3.5,4.48,6.07a6.53,6.53,0,0,1-3,5.51,11.27,11.27,0,0,1-6.83,2.15,15,15,0,0,1-9.24-3.61,1.8,1.8,0,0,1-.67-1.27,1.76,1.76,0,0,1,.38-1.37,1.83,1.83,0,0,1,1.26-.67,1.68,1.68,0,0,1,1.37.42,10.77,10.77,0,0,0,6.9,2.78,7.18,7.18,0,0,0,4.39-1.24A3.46,3.46,0,0,0,138.3,145.34Z" transform="translate(0.04 0.04)"/><path class="cls-5" d="M153.3,135a2,2,0,0,1,1.43.58,1.9,1.9,0,0,1,.59,1.39,1.93,1.93,0,0,1-.59,1.41,2,2,0,0,1-1.43.6h-.9V149a1.89,1.89,0,0,1,1.4.59,2,2,0,0,1,.58,1.43,2,2,0,0,1-2,2,4,4,0,0,1-4-4V139h-1a2,2,0,0,1-2-2,2,2,0,0,1,2-2h1v-5.23a1.87,1.87,0,0,1,.6-1.41,2,2,0,0,1,1.43-.58,2,2,0,0,1,2,2V135Z" transform="translate(0.04 0.04)"/><path class="cls-5" d="M176.42,145.52a7.16,7.16,0,0,1-2.26,5.3,7.52,7.52,0,0,1-10.66,0,7.18,7.18,0,0,1-2.22-5.31v-8.63a1.89,1.89,0,0,1,.56-1.34,1.86,1.86,0,0,1,1.36-.58,1.82,1.82,0,0,1,1.35.58,1.85,1.85,0,0,1,.56,1.34v8.63a3.65,3.65,0,0,0,3.69,3.69,3.68,3.68,0,0,0,2.65-1.07,3.58,3.58,0,0,0,1.14-2.62v-8.63a1.91,1.91,0,0,1,.54-1.34,1.77,1.77,0,0,1,1.32-.58,2,2,0,0,1,1.38.58,1.84,1.84,0,0,1,.59,1.34Z" transform="translate(0.04 0.04)"/><path class="cls-5" d="M200.16,151.09a2,2,0,0,1-1.92,1.95,1.91,1.91,0,0,1-1.28-.45,2,2,0,0,1-.67-1.1,8.55,8.55,0,0,1-4.91,1.55,8.34,8.34,0,0,1-6.22-2.66,9.19,9.19,0,0,1,0-12.73,8.52,8.52,0,0,1,11.06-1.16V129.7a1.84,1.84,0,0,1,.58-1.37,2,2,0,0,1,2.78,0,1.84,1.84,0,0,1,.58,1.37Zm-8.78-2a4.55,4.55,0,0,0,3.41-1.5,5,5,0,0,0,1.43-3.58,5.1,5.1,0,0,0-1.41-3.59,4.63,4.63,0,0,0-6.86,0,5.1,5.1,0,0,0-1.41,3.59A5,5,0,0,0,188,147.6,4.57,4.57,0,0,0,191.38,149.1Z" transform="translate(0.04 0.04)"/><path class="cls-5" d="M218,135.52a1.8,1.8,0,0,1,1.34-.55,1.92,1.92,0,0,1,1.37.56,1.86,1.86,0,0,1,.58,1.36v13.66a8.54,8.54,0,0,1-12.36,7.73,1.75,1.75,0,0,1-1-1.07,2.06,2.06,0,0,1,.07-1.5,1.93,1.93,0,0,1,1.14-.9,2.09,2.09,0,0,1,1.64.18,4.7,4.7,0,0,0,2.17.42,4.44,4.44,0,0,0,2.55-.94,4.52,4.52,0,0,0,1.68-2.33,6.88,6.88,0,0,1-3.43.86,7.2,7.2,0,0,1-5.33-2.24,7.31,7.31,0,0,1-2.22-5.34v-8.53a1.91,1.91,0,0,1,1.91-1.92,1.8,1.8,0,0,1,1.34.55,1.85,1.85,0,0,1,.54,1.37v8.53a3.53,3.53,0,0,0,1.1,2.62,3.69,3.69,0,0,0,2.66,1.06,3.61,3.61,0,0,0,2.63-1.06,3.52,3.52,0,0,0,1.09-2.62v-8.53A1.85,1.85,0,0,1,218,135.52Z" transform="translate(0.04 0.04)"/></g></g></svg>