<svg xmlns="http://www.w3.org/2000/svg" xmlns:xlink="http://www.w3.org/1999/xlink" viewBox="0 0 264.44 268.69"><defs><style>.cls-1{fill:none;}.cls-2{clip-path:url(#clip-path);}.cls-3{fill:#fff;}.cls-4{fill:#2a2a3f;}.cls-5{fill:#00bfea;}</style><clipPath id="clip-path" transform="translate(0 0)"><rect class="cls-1" width="264.44" height="264.44"/></clipPath></defs><g id="Layer_2" data-name="Layer 2"><g id="Layer_1-2" data-name="Layer 1"><g class="cls-2"><path class="cls-3" d="M132.22,264.44C59.31,264.44,0,205.13,0,132.22S59.31,0,132.22,0,264.44,59.31,264.44,132.22,205.13,264.44,132.22,264.44Zm0-262.36A130.14,130.14,0,1,0,262.36,132.22,130.29,130.29,0,0,0,132.22,2.08Z" transform="translate(0 0)"/><path class="cls-4" d="M132.22,193.55A61.33,61.33,0,1,0,70.9,132.22a61.33,61.33,0,0,0,61.32,61.33" transform="translate(0 0)"/></g><rect class="cls-5" x="63.12" y="218.69" width="138.2" height="50" rx="25"/><path class="cls-3" d="M103.3,253.12c-.06,0-.14-.06-.26-.17h0l-.2-.14-.08-.13a.73.73,0,0,0-.09-.09.69.69,0,0,1-.07-.13.49.49,0,0,0-.1-.16L95.62,236a1.46,1.46,0,0,1,0-1.16,1.36,1.36,0,0,1,.85-.82,1.4,1.4,0,0,1,1.15,0,1.52,1.52,0,0,1,.84.83l5.46,13,5.46-13a1.53,1.53,0,0,1,.86-.83,1.42,1.42,0,0,1,1.16,0,1.33,1.33,0,0,1,.82.82,1.51,1.51,0,0,1,0,1.16l-6.92,16.35-.11.23a.09.09,0,0,1,0,.06l-.36.36a.7.7,0,0,1-.18.11l-.38.14h-.06a1.12,1.12,0,0,1-.29,0,.91.91,0,0,1-.27,0h0a.49.49,0,0,0-.23-.06l0,0Z" transform="translate(0 0)"/><path class="cls-3" d="M117.83,235.17a1.54,1.54,0,0,1,1.54-1.54,1.5,1.5,0,0,1,1.1.45,1.46,1.46,0,0,1,.47,1.09v16.52a1.46,1.46,0,0,1-.47,1.09,1.5,1.5,0,0,1-1.1.45,1.54,1.54,0,0,1-1.54-1.54Z" transform="translate(0 0)"/><path class="cls-3" d="M127.71,253.23a1.54,1.54,0,0,1-1.54-1.54V235.17a1.54,1.54,0,0,1,1.54-1.54h9.16a1.51,1.51,0,0,1,1.08.45,1.49,1.49,0,0,1,.46,1.09,1.51,1.51,0,0,1-.46,1.1,1.49,1.49,0,0,1-1.08.47h-7.59v5.12h6.52a1.46,1.46,0,0,1,1.08.46,1.48,1.48,0,0,1,.46,1.09A1.54,1.54,0,0,1,135.8,245h-6.52v5.15h7.59a1.48,1.48,0,0,1,1.08.46,1.53,1.53,0,0,1,0,2.19,1.52,1.52,0,0,1-1.08.46H127.8l-.06,0Z" transform="translate(0 0)"/><path class="cls-3" d="M151,253l-.23.17h0a.6.6,0,0,0-.26.08h-.08a.87.87,0,0,1-.27,0,.79.79,0,0,1-.26,0h-.09l-.19-.07-.1,0a1.06,1.06,0,0,1-.21-.14h0a2.13,2.13,0,0,1-.22-.21,1.61,1.61,0,0,0-.17-.18v0a.46.46,0,0,1-.07-.13.54.54,0,0,0-.07-.12L141.85,236a1.53,1.53,0,0,1,0-1.17,1.34,1.34,0,0,1,.82-.81,1.42,1.42,0,0,1,1.16,0,1.39,1.39,0,0,1,.83.83l5.49,13,3.61-8.6a1.44,1.44,0,0,1,1.44-.95,1.49,1.49,0,0,1,1.47.95l3.61,8.6,5.46-13a1.55,1.55,0,0,1,2-.83,1.51,1.51,0,0,1,.81,2l-6.86,16.33a.88.88,0,0,1-.31.44.51.51,0,0,1,0,.09.72.72,0,0,0-.2.14h0l-.25.17h-.08l-.2.07h-.06a.79.79,0,0,1-.26,0,.91.91,0,0,1-.27,0H160l-.2-.07-.1,0a.68.68,0,0,1-.21-.15h0a1.05,1.05,0,0,1-.37-.39.43.43,0,0,1-.17-.28l-3.66-8.68-3.67,8.68-.11.25-.2.19a.23.23,0,0,1,0,.09.74.74,0,0,0-.17.14Z" transform="translate(0 0)"/><path class="cls-3" d="M106.91,111c0-2-2.31-3.42-6.92-4.29h-.08a21.86,21.86,0,0,1-5.31-1.65,7.54,7.54,0,0,1-3.28-2.73,6.4,6.4,0,0,1-1-3.44,6.72,6.72,0,0,1,3-5.63,11.66,11.66,0,0,1,10.48-1.61,14.63,14.63,0,0,1,2.69,1.1c.59.34,1.37.83,2.34,1.46a2,2,0,0,1,.85,1.29,1.94,1.94,0,0,1-.28,1.52,1.9,1.9,0,0,1-1.27.86,2,2,0,0,1-1.54-.29,20.73,20.73,0,0,0-3.28-1.89,7.5,7.5,0,0,0-3-.63A7,7,0,0,0,96,96.28a3.33,3.33,0,0,0-1.66,2.6,2,2,0,0,0,.32,1.14c.73,1.2,2.71,2.11,5.94,2.71h.07a25.18,25.18,0,0,1,5.43,1.65Q111,106.78,111,111a7.12,7.12,0,0,1-3.23,6,12.33,12.33,0,0,1-7.43,2.34,16.27,16.27,0,0,1-10.06-3.93,2,2,0,0,1-.73-1.38,1.91,1.91,0,0,1,.41-1.49,2,2,0,0,1,1.38-.73,1.9,1.9,0,0,1,1.49.45,11.7,11.7,0,0,0,7.51,3,7.85,7.85,0,0,0,4.78-1.35A3.77,3.77,0,0,0,106.91,111Z" transform="translate(0 0)"/><path class="cls-3" d="M128.88,109.41h-.07a2.13,2.13,0,0,1-1.81-.9l-5.63-7.86V117.2a2.05,2.05,0,0,1-.64,1.53,2.17,2.17,0,0,1-1.56.63A2.15,2.15,0,0,1,117,117.2V94a2.15,2.15,0,0,1,2.16-2.16h.12a1.93,1.93,0,0,1,1.73.9l7.83,10.85,7.82-10.85a2.09,2.09,0,0,1,1.77-.9h0a2.27,2.27,0,0,1,1.55.67,2,2,0,0,1,.65,1.49v23.2a2.08,2.08,0,0,1-.65,1.51,2.12,2.12,0,0,1-1.55.65,2.13,2.13,0,0,1-2.16-2.16V100.65l-5.67,7.86A2.09,2.09,0,0,1,128.88,109.41Z" transform="translate(0 0)"/><path class="cls-3" d="M162.07,109.41H162a2.14,2.14,0,0,1-1.81-.9l-5.62-7.86V117.2a2.06,2.06,0,0,1-.65,1.53,2.14,2.14,0,0,1-1.55.63,2.15,2.15,0,0,1-2.17-2.16V94a2.15,2.15,0,0,1,2.17-2.16h.11a2,2,0,0,1,1.74.9L162,103.59l7.82-10.85a2.11,2.11,0,0,1,1.77-.9h0a2.31,2.31,0,0,1,1.56.67,2,2,0,0,1,.64,1.49v23.2a2.07,2.07,0,0,1-.64,1.51,2.16,2.16,0,0,1-1.56.65,2.15,2.15,0,0,1-2.16-2.16V100.65l-5.66,7.86A2.11,2.11,0,0,1,162.07,109.41Z" transform="translate(0 0)"/><path class="cls-3" d="M30.79,145.55a9.56,9.56,0,0,0-2.87,6.92,9,9,0,0,0,2.93,6.78,9.5,9.5,0,0,0,6.78,2.81,10.18,10.18,0,0,0,6.56-2.16,2.14,2.14,0,0,1,1.62-.39,2.15,2.15,0,0,1,2,2.49,2.15,2.15,0,0,1-.82,1.48,14.38,14.38,0,0,1-9.09,3.06,14,14,0,0,1-10.14-4.15,13.77,13.77,0,0,1,0-20,14.19,14.19,0,0,1,10.14-4.19A14.39,14.39,0,0,1,47,141.3a2.26,2.26,0,0,1,.82,1.49,2.25,2.25,0,0,1-2,2.52,2,2,0,0,1-1.62-.43,10.29,10.29,0,0,0-13.4.67Z" transform="translate(0 0)"/><path class="cls-3" d="M55.14,163.67a9.78,9.78,0,0,1-2.69-6.94,9.88,9.88,0,0,1,2.69-7,8.78,8.78,0,0,1,6.67-2.89A8.9,8.9,0,0,1,67,148.61a2.41,2.41,0,0,1,.75-1.23,2,2,0,0,1,2.77.13,2.11,2.11,0,0,1,.61,1.5v15.45a2,2,0,0,1-.61,1.47,2.05,2.05,0,0,1-2.77.14,2.31,2.31,0,0,1-.75-1.22,8.87,8.87,0,0,1-5.23,1.69A8.76,8.76,0,0,1,55.14,163.67Zm1.52-6.94a5.79,5.79,0,0,0,1.43,4,4.72,4.72,0,0,0,3.7,1.62,4.85,4.85,0,0,0,3.74-1.62,5.65,5.65,0,0,0,1.47-4,5.79,5.79,0,0,0-1.49-4,4.82,4.82,0,0,0-3.72-1.65,4.75,4.75,0,0,0-3.68,1.63A5.82,5.82,0,0,0,56.66,156.73Z" transform="translate(0 0)"/><path class="cls-3" d="M91,149.05a2,2,0,0,1,.89,1.31,2.18,2.18,0,0,1-.26,1.6,2.07,2.07,0,0,1-2.91.55,7.18,7.18,0,0,0-3.63-1.46,3.69,3.69,0,0,0-2.34.71c-.42.29-.63.54-.63.77a.92.92,0,0,0,.1.49,1.27,1.27,0,0,0,.41.35,7.62,7.62,0,0,0,2.87.94l0,0h0a17.16,17.16,0,0,1,3.81,1.18A5.59,5.59,0,0,1,92,157.7a5.22,5.22,0,0,1,.82,2.71A5.46,5.46,0,0,1,90.32,165a8.8,8.8,0,0,1-5.12,1.57,11.21,11.21,0,0,1-7-2.71,2,2,0,0,1-.73-1.4,1.85,1.85,0,0,1,.45-1.51,1.89,1.89,0,0,1,1.42-.79,2,2,0,0,1,1.53.48,6.56,6.56,0,0,0,4.32,1.73,4.9,4.9,0,0,0,2.68-.75c.47-.39.71-.73.71-1a1,1,0,0,0-.12-.57,1.48,1.48,0,0,0-.51-.48,8.7,8.7,0,0,0-3.15-1.1h0a14.56,14.56,0,0,1-3.64-1.14,6.13,6.13,0,0,1-2.49-2.16,4.63,4.63,0,0,1-.67-2.48,5.27,5.27,0,0,1,2.32-4.32,8.36,8.36,0,0,1,4.85-1.46A10.47,10.47,0,0,1,91,149.05Z" transform="translate(0 0)"/><path class="cls-3" d="M115.91,156.2a1.83,1.83,0,0,1-.57,1.4,2.14,2.14,0,0,1-1.51.53H101.32a4.75,4.75,0,0,0,1.34,2.59,5.5,5.5,0,0,0,3.68,1.75,5.73,5.73,0,0,0,4.18-1,2.07,2.07,0,0,1,1.58-.63,1.63,1.63,0,0,1,1.37.51,1.75,1.75,0,0,1,0,2.56,9.77,9.77,0,0,1-6.94,2.57,9.21,9.21,0,0,1-6.88-2.89,10,10,0,0,1,0-13.86,9,9,0,0,1,6.71-2.89,9.19,9.19,0,0,1,6.62,2.58,9.49,9.49,0,0,1,2.93,6.55Zm-9.48-5.58a5.57,5.57,0,0,0-3.65,1.41,5.13,5.13,0,0,0-1.65,2.76h11.12a5.36,5.36,0,0,0-1.9-2.68A6.86,6.86,0,0,0,106.43,150.62Z" transform="translate(0 0)"/><path class="cls-3" d="M150.51,158.17q0-3-6.92-4.29h-.08a22.14,22.14,0,0,1-5.31-1.65,7.54,7.54,0,0,1-3.28-2.73,6.39,6.39,0,0,1-1-3.44,6.71,6.71,0,0,1,3-5.63,11.64,11.64,0,0,1,10.47-1.61,15.55,15.55,0,0,1,2.7,1.1c.59.34,1.37.83,2.34,1.46a2.08,2.08,0,0,1,.84,1.3,1.91,1.91,0,0,1-.27,1.51,2,2,0,0,1-1.28.87,1.93,1.93,0,0,1-1.53-.3,21.23,21.23,0,0,0-3.29-1.89,7.46,7.46,0,0,0-3-.63,7,7,0,0,0-4.25,1.22,3.36,3.36,0,0,0-1.65,2.6,2,2,0,0,0,.31,1.14c.74,1.2,2.72,2.11,5.94,2.71h.08a25.25,25.25,0,0,1,5.42,1.65q4.88,2.4,4.88,6.61a7.13,7.13,0,0,1-3.22,6,12.34,12.34,0,0,1-7.44,2.34,16.24,16.24,0,0,1-10.06-3.93,2,2,0,0,1-.73-1.37,2,2,0,0,1,.41-1.5,2,2,0,0,1,1.38-.73,1.86,1.86,0,0,1,1.49.46,11.74,11.74,0,0,0,7.51,3,7.85,7.85,0,0,0,4.78-1.35A3.75,3.75,0,0,0,150.51,158.17Z" transform="translate(0 0)"/><path class="cls-3" d="M166.83,146.88a2.14,2.14,0,0,1,1.55.63A2.06,2.06,0,0,1,169,149a2.1,2.1,0,0,1-.65,1.53,2.12,2.12,0,0,1-1.55.65h-1v11a2,2,0,0,1,1.54.65,2.14,2.14,0,0,1,.63,1.55,2.07,2.07,0,0,1-.63,1.53,2.09,2.09,0,0,1-1.54.63,4.37,4.37,0,0,1-4.36-4.36v-11h-1.14a2.17,2.17,0,1,1,0-4.33h1.14v-5.7a2,2,0,0,1,.65-1.53,2.14,2.14,0,0,1,1.55-.63,2.15,2.15,0,0,1,2.16,2.16v5.7Z" transform="translate(0 0)"/><path class="cls-3" d="M192,158.36a7.79,7.79,0,0,1-2.46,5.76,8.18,8.18,0,0,1-11.6,0,7.82,7.82,0,0,1-2.41-5.78V149a2,2,0,0,1,.61-1.46,2,2,0,0,1,2.94,0,2,2,0,0,1,.61,1.46v9.39a3.95,3.95,0,0,0,4,4,4,4,0,0,0,2.89-1.15,4,4,0,0,0,1.24-2.86V149a2.09,2.09,0,0,1,.59-1.46,1.89,1.89,0,0,1,1.44-.63,2.08,2.08,0,0,1,1.49.63A2,2,0,0,1,192,149Z" transform="translate(0 0)"/><path class="cls-3" d="M217.82,164.42a2,2,0,0,1-.63,1.49,2,2,0,0,1-1.45.63,2.06,2.06,0,0,1-1.4-.49,2.22,2.22,0,0,1-.73-1.2,9.26,9.26,0,0,1-5.34,1.69,9.07,9.07,0,0,1-6.77-2.89,10,10,0,0,1,0-13.86,9.29,9.29,0,0,1,12-1.26v-7.39a2.14,2.14,0,0,1,4.28,0Zm-9.55-2.16a5,5,0,0,0,3.71-1.63,5.45,5.45,0,0,0,1.56-3.9,5.58,5.58,0,0,0-1.54-3.91,5.05,5.05,0,0,0-7.47,0,5.57,5.57,0,0,0-1.53,3.91,5.49,5.49,0,0,0,1.55,3.9A5,5,0,0,0,208.27,162.26Z" transform="translate(0 0)"/><path class="cls-3" d="M237.2,147.47a2,2,0,0,1,1.46-.59,2.09,2.09,0,0,1,1.49.61,2,2,0,0,1,.63,1.48v14.86a9.34,9.34,0,0,1-9.39,9.4,8.9,8.9,0,0,1-4-1,1.9,1.9,0,0,1-1.11-1.16,2.25,2.25,0,0,1,.08-1.63,2.12,2.12,0,0,1,1.24-1,2.29,2.29,0,0,1,1.79.2,5.21,5.21,0,0,0,2.36.45,5.2,5.2,0,0,0,4.6-3.56,7.4,7.4,0,0,1-3.74.94,7.87,7.87,0,0,1-5.79-2.43,8,8,0,0,1-2.42-5.82V149a2.09,2.09,0,0,1,3.54-1.5,2.05,2.05,0,0,1,.59,1.5v9.28a3.83,3.83,0,0,0,1.2,2.85,4,4,0,0,0,2.88,1.16,3.94,3.94,0,0,0,2.87-1.16,3.85,3.85,0,0,0,1.18-2.85V149A2.05,2.05,0,0,1,237.2,147.47Z" transform="translate(0 0)"/></g></g></svg>